<svg width="25" height="25" viewBox="0 0 25 25" fill="none" xmlns="http://www.w3.org/2000/svg">
    <path d="M15.21 17.7902C15.3027 17.6977 15.3762 17.5878 15.4264 17.4668C15.4766 17.3459 15.5024 17.2162 15.5024 17.0852C15.5024 16.9543 15.4766 16.8246 15.4264 16.7036C15.3762 16.5826 15.3027 16.4727 15.21 16.3802L11.33 12.5002L15.21 8.62022C15.3026 8.52764 15.376 8.41773 15.4261 8.29677C15.4762 8.1758 15.502 8.04615 15.502 7.91522C15.502 7.78429 15.4762 7.65464 15.4261 7.53368C15.376 7.41271 15.3026 7.3028 15.21 7.21022C15.1174 7.11764 15.0075 7.0442 14.8865 6.9941C14.7656 6.94399 14.6359 6.9182 14.505 6.9182C14.3741 6.9182 14.2444 6.94399 14.1235 6.9941C14.0025 7.0442 13.8926 7.11764 13.8 7.21022L9.21 11.8002C9.11729 11.8927 9.04375 12.0026 8.99357 12.1236C8.94338 12.2446 8.91755 12.3743 8.91755 12.5052C8.91755 12.6362 8.94338 12.7659 8.99357 12.8868C9.04375 13.0078 9.11729 13.1177 9.21 13.2102L13.8 17.8002C14.18 18.1802 14.82 18.1802 15.21 17.7902Z" fill="white"/>
</svg>
