<svg width="56" height="56" viewBox="0 0 56 56" fill="none" xmlns="http://www.w3.org/2000/svg">
    <path d="M21.6765 15.6571C21.4602 15.873 21.2886 16.1294 21.1715 16.4117C21.0544 16.6939 20.9941 16.9965 20.9941 17.3021C20.9941 17.6077 21.0544 17.9103 21.1715 18.1926C21.2886 18.4749 21.4602 18.7313 21.6765 18.9471L30.7298 28.0005L21.6765 37.0538C21.4605 37.2698 21.2891 37.5263 21.1722 37.8085C21.0553 38.0908 20.9951 38.3933 20.9951 38.6988C20.9951 39.0043 21.0553 39.3068 21.1722 39.5891C21.2891 39.8713 21.4605 40.1278 21.6765 40.3438C21.8925 40.5598 22.149 40.7312 22.4312 40.8481C22.7135 40.965 23.016 41.0252 23.3215 41.0252C23.627 41.0252 23.9295 40.965 24.2118 40.8481C24.494 40.7312 24.7505 40.5598 24.9665 40.3438L35.6765 29.6338C35.8928 29.4179 36.0644 29.1615 36.1815 28.8792C36.2986 28.597 36.3589 28.2944 36.3589 27.9888C36.3589 27.6832 36.2986 27.3806 36.1815 27.0983C36.0644 26.8161 35.8928 26.5597 35.6765 26.3438L24.9665 15.6338C24.0798 14.7471 22.5865 14.7471 21.6765 15.6571Z" fill="white"/>
</svg>
