<svg xmlns="http://www.w3.org/2000/svg" width="93" height="93" viewBox="0 0 93 93" fill="none">
  <g clip-path="url(#clip0_77_2037)">
    <path d="M33.3084 6.62634C33.6344 6.82156 33.9187 7.07909 34.1452 7.38422C34.3716 7.68936 34.5357 8.03612 34.6281 8.40469C34.7206 8.77326 34.7395 9.15643 34.6837 9.53231C34.628 9.90819 34.4988 10.2694 34.3035 10.5953L19.5731 35.1441H72.9984L58.2621 10.5953C57.8678 9.93706 57.7511 9.14907 57.9377 8.40474C58.1243 7.66041 58.599 7.0207 59.2573 6.62634C59.9156 6.23199 60.7036 6.11528 61.4479 6.30191C62.1922 6.48853 62.8319 6.9632 63.2263 7.62149L79.7445 35.1441H86.7857C88.3202 35.1441 89.7918 35.7537 90.8768 36.8387C91.9619 37.9238 92.5714 39.3954 92.5714 40.9298V46.7156C92.5714 48.25 91.9619 49.7216 90.8768 50.8067C89.7918 51.8917 88.3202 52.5013 86.7857 52.5013V78.537C86.7857 82.3731 85.2618 86.0522 82.5492 88.7648C79.8366 91.4773 76.1576 93.0013 72.3214 93.0013H20.25C16.4138 93.0013 12.7348 91.4773 10.0222 88.7648C7.30963 86.0522 5.78571 82.3731 5.78571 78.537V52.5013C4.25125 52.5013 2.77963 51.8917 1.6946 50.8067C0.609565 49.7216 0 48.25 0 46.7156V40.9298C0 39.3954 0.609565 37.9238 1.6946 36.8387C2.77963 35.7537 4.25125 35.1441 5.78571 35.1441H12.8269L29.3336 7.62149C29.5288 7.29548 29.7863 7.01114 30.0915 6.78468C30.3966 6.55823 30.7433 6.39411 31.1119 6.3017C31.4805 6.20929 31.8637 6.19039 32.2395 6.2461C32.6154 6.3018 32.9766 6.43101 33.3026 6.62634H33.3084ZM11.5714 52.5013V78.537C11.5714 80.8387 12.4858 83.0461 14.1133 84.6737C15.7409 86.3012 17.9483 87.2155 20.25 87.2155H72.3214C74.6231 87.2155 76.8306 86.3012 78.4581 84.6737C80.0857 83.0461 81 80.8387 81 78.537V52.5013H11.5714ZM5.78571 40.9298V46.7156H86.7857V40.9298H5.78571ZM23.1429 58.287C23.9101 58.287 24.6459 58.5918 25.1884 59.1343C25.7309 59.6768 26.0357 60.4126 26.0357 61.1798V78.537C26.0357 79.3042 25.7309 80.04 25.1884 80.5825C24.6459 81.1251 23.9101 81.4298 23.1429 81.4298C22.3756 81.4298 21.6398 81.1251 21.0973 80.5825C20.5548 80.04 20.25 79.3042 20.25 78.537V61.1798C20.25 60.4126 20.5548 59.6768 21.0973 59.1343C21.6398 58.5918 22.3756 58.287 23.1429 58.287ZM34.7143 58.287C35.4815 58.287 36.2173 58.5918 36.7598 59.1343C37.3024 59.6768 37.6071 60.4126 37.6071 61.1798V78.537C37.6071 79.3042 37.3024 80.04 36.7598 80.5825C36.2173 81.1251 35.4815 81.4298 34.7143 81.4298C33.9471 81.4298 33.2112 81.1251 32.6687 80.5825C32.1262 80.04 31.8214 79.3042 31.8214 78.537V61.1798C31.8214 60.4126 32.1262 59.6768 32.6687 59.1343C33.2112 58.5918 33.9471 58.287 34.7143 58.287ZM46.2857 58.287C47.0529 58.287 47.7888 58.5918 48.3313 59.1343C48.8738 59.6768 49.1786 60.4126 49.1786 61.1798V78.537C49.1786 79.3042 48.8738 80.04 48.3313 80.5825C47.7888 81.1251 47.0529 81.4298 46.2857 81.4298C45.5185 81.4298 44.7827 81.1251 44.2402 80.5825C43.6976 80.04 43.3929 79.3042 43.3929 78.537V61.1798C43.3929 60.4126 43.6976 59.6768 44.2402 59.1343C44.7827 58.5918 45.5185 58.287 46.2857 58.287ZM57.8571 58.287C58.6244 58.287 59.3602 58.5918 59.9027 59.1343C60.4452 59.6768 60.75 60.4126 60.75 61.1798V78.537C60.75 79.3042 60.4452 80.04 59.9027 80.5825C59.3602 81.1251 58.6244 81.4298 57.8571 81.4298C57.0899 81.4298 56.3541 81.1251 55.8116 80.5825C55.2691 80.04 54.9643 79.3042 54.9643 78.537V61.1798C54.9643 60.4126 55.2691 59.6768 55.8116 59.1343C56.3541 58.5918 57.0899 58.287 57.8571 58.287ZM69.4286 58.287C70.1958 58.287 70.9316 58.5918 71.4741 59.1343C72.0166 59.6768 72.3214 60.4126 72.3214 61.1798V78.537C72.3214 79.3042 72.0166 80.04 71.4741 80.5825C70.9316 81.1251 70.1958 81.4298 69.4286 81.4298C68.6613 81.4298 67.9255 81.1251 67.383 80.5825C66.8405 80.04 66.5357 79.3042 66.5357 78.537V61.1798C66.5357 60.4126 66.8405 59.6768 67.383 59.1343C67.9255 58.5918 68.6613 58.287 69.4286 58.287Z" fill="white"/>
  </g>
  <defs>
    <clipPath id="clip0_77_2037">
      <rect width="92.5714" height="92.5714" fill="white" transform="translate(0 0.429688)"/>
    </clipPath>
  </defs>
</svg>