<svg xmlns="http://www.w3.org/2000/svg" width="54" height="54" viewBox="0 0 54 54" fill="none">
    <path d="M51.6883 2.06296C51.1926 1.74127 50.6384 1.52037 50.0574 1.41291C49.4763 1.30544 48.8798 1.31351 48.3018 1.43665C47.7239 1.55979 47.1759 1.79558 46.6891 2.13057C46.2023 2.46555 45.7863 2.89316 45.4648 3.38896L20.2498 42.2555L7.95278 30.8855C7.51892 30.4843 7.0103 30.1725 6.45596 29.9679C5.90161 29.7634 5.3124 29.67 4.72196 29.6931C3.52951 29.7398 2.40445 30.2583 1.59428 31.1345C0.784106 32.0107 0.355191 33.1728 0.401887 34.3653C0.448584 35.5577 0.967067 36.6828 1.84328 37.493L17.9893 52.421C17.9893 52.421 18.4528 52.82 18.6673 52.9595C19.163 53.2814 19.7173 53.5025 20.2985 53.6101C20.8797 53.7177 21.4765 53.7097 22.0546 53.5865C22.6327 53.4634 23.1809 53.2275 23.6678 52.8924C24.1547 52.5573 24.5708 52.1295 24.8923 51.6335L53.0143 8.28646C53.336 7.7908 53.5569 7.2366 53.6643 6.65555C53.7718 6.07449 53.7637 5.47795 53.6406 4.90001C53.5175 4.32207 53.2817 3.77405 52.9467 3.28726C52.6117 2.80047 52.1841 2.38445 51.6883 2.06296Z" fill="white"/>
</svg>