<svg width="102" height="102" viewBox="0 0 102 102" fill="none" xmlns="http://www.w3.org/2000/svg">
<path d="M39.4831 28.517C39.0891 28.9102 38.7766 29.3773 38.5633 29.8914C38.35 30.4055 38.2402 30.9567 38.2402 31.5133C38.2402 32.0699 38.35 32.6211 38.5633 33.1352C38.7766 33.6493 39.0891 34.1164 39.4831 34.5095L55.9731 50.9995L39.4831 67.4895C39.0896 67.883 38.7775 68.3501 38.5646 68.8642C38.3516 69.3783 38.242 69.9293 38.242 70.4858C38.242 71.0422 38.3516 71.5933 38.5646 72.1074C38.7775 72.6214 39.0896 73.0886 39.4831 73.482C39.8766 73.8755 40.3437 74.1876 40.8578 74.4006C41.3719 74.6135 41.9229 74.7231 42.4794 74.7231C43.0358 74.7231 43.5868 74.6135 44.1009 74.4006C44.615 74.1876 45.0821 73.8755 45.4756 73.482L64.9831 53.9745C65.3771 53.5814 65.6897 53.1143 65.903 52.6002C66.1162 52.0861 66.226 51.5349 66.226 50.9783C66.226 50.4217 66.1162 49.8705 65.903 49.3564C65.6897 48.8423 65.3771 48.3752 64.9831 47.982L45.4756 28.4745C43.8606 26.8595 41.1406 26.8595 39.4831 28.517Z" fill="black"/>
</svg>
