<svg width="120" height="86" viewBox="0 0 120 86" fill="none" xmlns="http://www.w3.org/2000/svg">
    <g clip-path="url(#clip0_77_1005)">
        <mask id="mask0_77_1005" style="mask-type:alpha" maskUnits="userSpaceOnUse" x="0" y="0" width="120" height="86">
            <path d="M108.571 0H11.4286C5.11675 0 0 5.1338 0 11.4667V74.5333C0 80.8662 5.11675 86 11.4286 86H108.571C114.883 86 120 80.8662 120 74.5333V11.4667C120 5.1338 114.883 0 108.571 0Z" fill="white"/>
        </mask>
        <g mask="url(#mask0_77_1005)">
            <path d="M108.571 0H11.4286C5.11675 0 0 5.1338 0 11.4667V74.5333C0 80.8662 5.11675 86 11.4286 86H108.571C114.883 86 120 80.8662 120 74.5333V11.4667C120 5.1338 114.883 0 108.571 0Z" fill="#22438B"/>
            <path fill-rule="evenodd" clip-rule="evenodd" d="M17.1426 5.7334L5.56543 5.88247L5.714 17.2001L102.754 80.4273L114.394 80.2151L114.177 68.9663L17.1426 5.7334Z" fill="white"/>
            <path fill-rule="evenodd" clip-rule="evenodd" d="M11.4282 5.7334L5.71387 11.4667L108.571 80.2667L114.285 74.5334L11.4282 5.7334Z" fill="#FF4949"/>
            <path fill-rule="evenodd" clip-rule="evenodd" d="M102.857 5.7334H114.285V17.2001C114.285 17.2001 47.1424 59.6038 17.2452 80.4273C16.8852 80.6795 5.8281 80.4445 5.8281 80.4445L4.94238 69.5454L102.857 5.7334Z" fill="white"/>
            <path fill-rule="evenodd" clip-rule="evenodd" d="M108.817 5.57324L114.285 11.4671L11.4282 80.2671L5.71387 74.5338L108.817 5.57324Z" fill="#FF4949"/>
            <path fill-rule="evenodd" clip-rule="evenodd" d="M45.7139 5.7334H74.2853V28.6667H114.285V57.3334H74.2853V80.2667H45.7139V57.3334H5.71387V28.6667H45.7139V5.7334Z" fill="white"/>
            <path fill-rule="evenodd" clip-rule="evenodd" d="M51.4282 5.7334H68.571V34.4001H114.285V51.6001H68.571V80.2667H51.4282V51.6001H5.71387V34.4001H51.4282V5.7334Z" fill="#FF4949"/>
            <path d="M108.572 2.86621H11.4289C6.69498 2.86621 2.85742 6.71656 2.85742 11.4662V74.5329C2.85742 79.2825 6.69498 83.1329 11.4289 83.1329H108.572C113.306 83.1329 117.143 79.2825 117.143 74.5329V11.4662C117.143 6.71656 113.306 2.86621 108.572 2.86621Z" stroke="black" stroke-opacity="0.1"/>
        </g>
    </g>
    <defs>
        <clipPath id="clip0_77_1005">
            <rect width="120" height="86" fill="white"/>
        </clipPath>
    </defs>
</svg>
