<svg width="120" height="86" viewBox="0 0 120 86" fill="none" xmlns="http://www.w3.org/2000/svg">
    <g clip-path="url(#clip0_77_1008)">
        <mask id="mask0_77_1008" style="mask-type:alpha" maskUnits="userSpaceOnUse" x="0" y="0" width="120" height="86">
            <path d="M108.571 0H11.4286C5.11675 0 0 5.1338 0 11.4667V74.5333C0 80.8662 5.11675 86 11.4286 86H108.571C114.883 86 120 80.8662 120 74.5333V11.4667C120 5.1338 114.883 0 108.571 0Z" fill="white"/>
        </mask>
        <g mask="url(#mask0_77_1008)">
            <path d="M108.571 0H11.4286C5.11675 0 0 5.1338 0 11.4667V74.5333C0 80.8662 5.11675 86 11.4286 86H108.571C114.883 86 120 80.8662 120 74.5333V11.4667C120 5.1338 114.883 0 108.571 0Z" fill="#FFDA00"/>
            <path fill-rule="evenodd" clip-rule="evenodd" d="M0 0H120V45.8667H0V0Z" fill="#0266C3"/>
            <path d="M108.572 2.86621H11.4289C6.69498 2.86621 2.85742 6.71656 2.85742 11.4662V74.5329C2.85742 79.2825 6.69498 83.1329 11.4289 83.1329H108.572C113.306 83.1329 117.143 79.2825 117.143 74.5329V11.4662C117.143 6.71656 113.306 2.86621 108.572 2.86621Z" stroke="black" stroke-opacity="0.1"/>
        </g>
    </g>
    <defs>
        <clipPath id="clip0_77_1008">
            <rect width="120" height="86" fill="white"/>
        </clipPath>
    </defs>
</svg>
